<?xml version="1.0" encoding="UTF-8"?>
<svg id="overlay_copy" data-name="overlay copy" xmlns="http://www.w3.org/2000/svg" viewBox="0 0 701 150">
  <path d="M80.78,141.55h-35.94c-1.14,0-2.12-.41-2.95-1.24-.83-.82-1.24-1.62-1.24-2.38s.06-1.33.19-1.71L82.3,14.72c1.14-4.18,3.99-6.28,8.56-6.28h52.86c4.56,0,7.42,2.09,8.56,6.28l41.45,121.51c.12.38.19.95.19,1.71s-.41,1.55-1.24,2.38c-.83.83-1.81,1.24-2.95,1.24h-35.94c-4.06,0-6.91-2.15-8.56-6.46l-4.75-13.31h-46.4l-4.75,13.31c-1.65,4.31-4.5,6.46-8.56,6.46ZM130.78,84.7l-13.5-39.55-13.5,39.55h27Z"/>
  <path d="M212.36,8.45h60.66c13.94,0,26.05,1.84,36.32,5.51,10.27,3.68,18.57,9.89,24.91,18.63,6.34,8.75,9.51,19.65,9.51,32.71v19.4c0,20.28-6.85,35.05-20.54,44.31-12.55,8.37-29.28,12.55-50.2,12.55h-60.66c-1.4,0-2.6-.51-3.61-1.52-1.02-1.01-1.52-2.22-1.52-3.61V13.58c0-1.39.5-2.6,1.52-3.61,1.01-1.01,2.22-1.52,3.61-1.52ZM256.66,45.53v58.95h17.3c5.96,0,10.68-1.42,14.16-4.28,3.49-2.85,5.23-6.87,5.23-12.07v-26.24c0-5.2-1.74-9.22-5.23-12.07-3.49-2.85-8.21-4.28-14.16-4.28h-17.3Z"/>
  <path d="M394.52,141.55h-35.94c-1.14,0-2.13-.41-2.95-1.24-.83-.82-1.24-1.62-1.24-2.38s.06-1.33.19-1.71l41.45-121.51c1.14-4.18,3.99-6.28,8.56-6.28h52.86c4.56,0,7.42,2.09,8.56,6.28l41.45,121.51c.12.38.19.95.19,1.71s-.41,1.55-1.24,2.38-1.81,1.24-2.95,1.24h-35.94c-4.06,0-6.91-2.15-8.56-6.46l-4.75-13.31h-46.4l-4.75,13.31c-1.65,4.31-4.5,6.46-8.56,6.46ZM444.53,84.7l-13.5-39.55-13.5,39.55h27Z"/>
  <path d="M620.42,8.45h34.8c1.39,0,2.6.51,3.61,1.52,1.01,1.02,1.52,2.22,1.52,3.61v122.84c0,1.4-.51,2.6-1.52,3.61s-2.22,1.52-3.61,1.52h-34.42c-1.4,0-2.6-.51-3.61-1.52-1.02-1.01-1.52-2.22-1.52-3.61v-58.95l-13.88,27.38c-.76,1.52-1.9,2.69-3.42,3.52-1.52.83-3.04,1.24-4.56,1.24h-12.93c-2.16,0-3.93-.57-5.32-1.71-1.4-1.14-2.28-2.15-2.66-3.04l-13.88-27.38v58.95c0,1.4-.51,2.6-1.52,3.61s-2.22,1.52-3.61,1.52h-34.42c-1.4,0-2.6-.51-3.61-1.52-1.02-1.01-1.52-2.22-1.52-3.61V13.58c0-1.39.51-2.6,1.52-3.61s2.22-1.52,3.61-1.52h34.8c3.55,0,6.27,1.71,8.18,5.13l24.91,45.64,24.91-45.64c1.9-3.42,4.63-5.13,8.18-5.13Z"/>
</svg>