<?xml version="1.0" encoding="UTF-8"?>
<svg id="overlay_copy" data-name="overlay copy" xmlns="http://www.w3.org/2000/svg" viewBox="0 0 701 150">
  <path d="M86.34,82.74c0,8.73-5.6,13.1-16.79,13.1h-24.54c-.44,0-.81-.16-1.13-.48-.32-.32-.48-.7-.48-1.13v-38.47c0-.44.16-.81.48-1.13.32-.32.69-.48,1.13-.48h23.94c5.64,0,9.8,1.02,12.48,3.07,2.68,2.04,4.02,5.13,4.02,9.26v.18c0,1.91-.52,3.53-1.55,4.88-1.03,1.35-2.1,2.2-3.22,2.56,1.55.48,2.88,1.52,3.99,3.12,1.11,1.61,1.67,3.45,1.67,5.51ZM68.68,68.95c.42-.58.62-1.22.62-1.93s-.21-1.33-.62-1.85-1.02-.77-1.82-.77h-7.98v5.42h7.98c.79,0,1.4-.29,1.82-.86ZM58.89,79.76v5.84h8.64c.91,0,1.6-.31,2.05-.92.46-.61.68-1.3.68-2.05v-.06c0-.75-.25-1.41-.74-1.96-.5-.56-1.16-.83-1.99-.83h-8.64Z"/>
  <path d="M136.42,94c.08.16.12.38.12.65s-.13.55-.39.8c-.26.26-.57.39-.92.39h-13.52c-1.19,0-2.02-.5-2.5-1.49l-5.24-11.79h-5v11.67c0,.44-.16.81-.48,1.13-.32.32-.7.48-1.13.48h-12.86c-.44,0-.81-.16-1.13-.48s-.48-.7-.48-1.13v-38.47c0-.44.16-.81.48-1.13s.69-.48,1.13-.48h23.17c5.44,0,9.75,1.29,12.92,3.87,3.18,2.58,4.76,6.1,4.76,10.54,0,5.4-2.08,9.31-6.25,11.73l7.33,13.7ZM108.97,65.23v6.31h7.44c.87,0,1.55-.29,2.02-.86.48-.58.71-1.3.71-2.17s-.23-1.64-.68-2.29c-.46-.65-1.14-.98-2.05-.98h-7.44Z"/>
  <path d="M157.44,84.23h23.76c.44,0,.81.16,1.13.48.32.32.48.7.48,1.13v8.4c0,.44-.16.81-.48,1.13-.32.32-.7.48-1.13.48h-37.64c-.44,0-.81-.16-1.13-.48-.32-.32-.48-.7-.48-1.13v-38.47c0-.44.16-.81.48-1.13.32-.32.69-.48,1.13-.48h37.04c.44,0,.81.16,1.13.48s.48.7.48,1.13v8.4c0,.44-.16.82-.48,1.13-.32.32-.7.48-1.13.48h-23.17v3.75h19.89c.44,0,.81.16,1.13.48.32.32.48.7.48,1.13v7.74c0,.44-.16.81-.48,1.13-.32.32-.7.48-1.13.48h-19.89v3.75Z"/>
  <path d="M199.79,95.84h-11.26c-.36,0-.67-.13-.92-.39-.26-.26-.39-.51-.39-.74s.02-.42.06-.54l12.98-38.05c.36-1.31,1.25-1.96,2.68-1.96h16.56c1.43,0,2.32.65,2.68,1.96l12.98,38.05c.04.12.06.3.06.54s-.13.49-.39.74c-.26.26-.57.39-.92.39h-11.26c-1.27,0-2.16-.67-2.68-2.02l-1.49-4.17h-14.53l-1.49,4.17c-.52,1.35-1.41,2.02-2.68,2.02ZM215.45,78.04l-4.23-12.39-4.23,12.39h8.46Z"/>
  <path d="M254.69,70.5v9.01c0,1.54.55,2.72,1.64,3.55,1.09.83,2.52,1.24,4.29,1.24s3.05-.26,3.84-.79c.79-.53,1.46-1.29,1.99-2.31.54-1.01,1.24-1.52,2.11-1.52h12.86c.36,0,.66.13.92.38.26.26.39.56.39.91,0,3.63-1.75,6.95-5.24,9.96-1.75,1.49-4.07,2.69-6.97,3.6-2.9.92-6.31,1.38-10.24,1.38s-7.51-.59-10.75-1.77c-3.24-1.18-5.87-3.12-7.89-5.81-2.02-2.69-3.04-5.99-3.04-9.9v-6.85c0-3.91,1.01-7.22,3.04-9.93,3.81-5.03,10.18-7.55,19.12-7.55,3.61,0,6.87.46,9.77,1.38,2.9.92,5.22,2.12,6.97,3.6,3.49,3.01,5.24,6.33,5.24,9.96,0,.35-.13.65-.39.91-.26.26-.57.38-.92.38h-12.86c-.87,0-1.58-.51-2.11-1.52s-1.2-1.78-1.99-2.31c-.8-.52-2.08-.79-3.84-.79s-3.2.41-4.29,1.24c-1.09.83-1.64,2.01-1.64,3.55Z"/>
  <path d="M316.87,54.16h12.27c.44,0,.81.16,1.13.48.32.32.48.7.48,1.13v38.47c0,.44-.16.81-.48,1.13-.32.32-.7.48-1.13.48h-12.27c-.44,0-.81-.16-1.13-.48-.32-.32-.48-.7-.48-1.13v-12.68h-11.91v12.68c0,.44-.16.81-.48,1.13-.32.32-.7.48-1.13.48h-12.27c-.44,0-.81-.15-1.13-.45-.32-.3-.48-.68-.48-1.16v-38.47c0-.44.16-.81.48-1.13.32-.32.69-.48,1.13-.48h12.27c.44,0,.81.16,1.13.48.32.32.48.7.48,1.13v12.21h11.91v-12.21c0-.44.16-.81.48-1.13.32-.32.69-.48,1.13-.48Z"/>
  <path d="M396.4,71.46v7.08c0,3.99-.99,7.32-2.98,9.99-1.99,2.67-4.59,4.57-7.8,5.69-3.22,1.12-7.01,1.68-11.38,1.68s-8.16-.56-11.37-1.68c-3.22-1.12-5.82-3.02-7.8-5.69-1.99-2.67-2.98-6.04-2.98-10.1v-6.85c0-5.84,2.05-10.22,6.16-13.12,4.11-2.9,9.44-4.35,15.99-4.35s11.88,1.45,15.99,4.35c4.11,2.9,6.16,7.24,6.16,13.01ZM368.17,70.5v9.01c0,1.54.55,2.72,1.64,3.55,1.09.83,2.57,1.24,4.44,1.24s3.34-.42,4.44-1.27c1.09-.84,1.64-2.04,1.64-3.58v-8.9c0-1.54-.55-2.73-1.64-3.58-1.09-.85-2.57-1.27-4.44-1.27s-3.35.41-4.44,1.24c-1.09.83-1.64,2.01-1.64,3.55Z"/>
  <path d="M405.63,54.16h37.88c.43,0,.81.16,1.13.48.32.32.48.7.48,1.13v9.05c0,.44-.16.82-.48,1.13-.32.32-.7.48-1.13.48h-23.41v3.81h19.53c.44,0,.81.16,1.13.48.32.32.48.7.48,1.13v8.99c0,.44-.16.81-.48,1.13s-.7.48-1.13.48h-19.53v11.79c0,.44-.16.81-.48,1.13-.32.32-.7.48-1.13.48h-12.86c-.44,0-.82-.16-1.13-.48-.32-.32-.48-.7-.48-1.13v-38.47c0-.44.16-.81.48-1.13.32-.32.7-.48,1.13-.48Z"/>
  <path d="M498.59,54.16h10.9c.44,0,.81.16,1.13.48.32.32.48.7.48,1.13v38.47c0,.44-.16.81-.48,1.13-.32.32-.7.48-1.13.48h-10.78c-.44,0-.81-.16-1.13-.48-.32-.32-.48-.7-.48-1.13v-18.46l-4.35,8.58c-.24.48-.59.84-1.07,1.1-.48.26-.95.39-1.43.39h-4.05c-.68,0-1.23-.18-1.67-.54-.44-.36-.71-.67-.83-.95l-4.35-8.58v18.46c0,.44-.16.81-.48,1.13-.32.32-.7.48-1.13.48h-10.78c-.44,0-.82-.16-1.13-.48-.32-.32-.48-.7-.48-1.13v-38.47c0-.44.16-.81.48-1.13.32-.32.7-.48,1.13-.48h10.9c1.11,0,1.96.54,2.56,1.61l7.8,14.29,7.8-14.29c.6-1.07,1.45-1.61,2.56-1.61Z"/>
  <path d="M556.24,66.36h-10.78v17.27h10.78c.44,0,.81.16,1.13.48.32.32.48.7.48,1.13v8.99c0,.44-.16.81-.48,1.13-.32.32-.7.48-1.13.48h-37.76c-.44,0-.81-.16-1.13-.48s-.48-.7-.48-1.13v-8.99c0-.44.16-.81.48-1.13.32-.32.7-.48,1.13-.48h10.9v-17.27h-10.9c-.44,0-.81-.16-1.13-.48-.32-.32-.48-.69-.48-1.13v-8.99c0-.44.16-.81.48-1.13s.7-.48,1.13-.48h37.76c.44,0,.81.16,1.13.48.32.32.48.7.48,1.13v8.99c0,.44-.16.82-.48,1.13s-.7.48-1.13.48Z"/>
  <path d="M594.05,54.16h11.08c.44,0,.81.16,1.13.48.32.32.48.7.48,1.13v38.47c0,.44-.16.81-.48,1.13-.32.32-.7.48-1.13.48h-9.59c-.95,0-1.75-.42-2.38-1.25l-12.98-16.56v16.2c0,.44-.16.81-.48,1.13s-.7.48-1.13.48h-11.08c-.44,0-.82-.16-1.13-.48-.32-.32-.48-.7-.48-1.13v-38.47c0-.44.16-.81.48-1.13.32-.32.69-.48,1.13-.48h9.65c.95,0,1.73.4,2.32,1.19l12.98,17.93v-17.51c0-.44.16-.81.48-1.13s.7-.48,1.13-.48Z"/>
  <path d="M616.45,54.16h19c4.37,0,8.16.58,11.37,1.73,3.22,1.15,5.82,3.1,7.8,5.84,1.98,2.74,2.98,6.15,2.98,10.24v6.07c0,6.35-2.14,10.98-6.43,13.88-3.93,2.62-9.17,3.93-15.72,3.93h-19c-.44,0-.81-.16-1.13-.48-.32-.32-.48-.7-.48-1.13v-38.47c0-.44.16-.81.48-1.13.32-.32.7-.48,1.13-.48ZM630.32,65.77v18.46h5.42c1.86,0,3.34-.45,4.44-1.34,1.09-.89,1.64-2.15,1.64-3.78v-8.22c0-1.63-.55-2.89-1.64-3.78-1.09-.89-2.57-1.34-4.44-1.34h-5.42Z"/>
</svg>