<?xml version="1.0" encoding="UTF-8"?>
<svg id="overlay_copy" data-name="overlay copy" xmlns="http://www.w3.org/2000/svg" viewBox="0 0 701 150">
  <path d="M92.47,60.62v28.76c0,4.92,1.74,8.69,5.23,11.33,3.49,2.64,8.05,3.95,13.69,3.95s9.73-.84,12.26-2.52c2.53-1.68,4.66-4.13,6.37-7.37,1.71-3.24,3.96-4.86,6.75-4.86h41.07c1.14,0,2.12.41,2.95,1.22.82.81,1.24,1.78,1.24,2.9,0,11.6-5.58,22.2-16.73,31.81-5.58,4.74-13,8.58-22.25,11.51-9.26,2.93-20.16,4.39-32.71,4.39s-23.99-1.88-34.32-5.65c-10.33-3.77-18.73-9.95-25.2-18.54-6.47-8.59-9.7-19.12-9.7-31.61v-21.88c0-12.48,3.23-23.05,9.7-31.7,12.17-16.07,32.52-24.1,61.04-24.1,11.53,0,21.93,1.47,31.18,4.4,9.25,2.93,16.67,6.77,22.25,11.5,11.15,9.6,16.73,20.2,16.73,31.8,0,1.12-.41,2.09-1.24,2.9-.83.81-1.81,1.22-2.95,1.22h-41.07c-2.79,0-5.04-1.62-6.75-4.85s-3.84-5.69-6.37-7.37c-2.54-1.68-6.63-2.52-12.26-2.52s-10.21,1.32-13.69,3.95c-3.49,2.64-5.23,6.41-5.23,11.33Z"/>
  <path d="M328.06,102.57c1.39,0,2.6.51,3.61,1.52,1.01,1.02,1.52,2.22,1.52,3.61v28.71c0,1.4-.51,2.6-1.52,3.61s-2.22,1.52-3.61,1.52h-122.08c-1.4,0-2.6-.51-3.61-1.52-1.02-1.01-1.52-2.22-1.52-3.61v-27.38c0-2.92.95-5.14,2.85-6.66l60.09-54.95h-53.81c-1.4,0-2.6-.51-3.61-1.52-1.02-1.01-1.52-2.22-1.52-3.61V13.58c0-1.39.5-2.6,1.52-3.61s2.22-1.52,3.61-1.52h114.09c1.39,0,2.6.51,3.61,1.52,1.01,1.02,1.52,2.22,1.52,3.61v27.19c0,2.66-.83,4.75-2.47,6.27l-59.33,55.52h60.66Z"/>
  <path d="M453.56,8.45h39.74c1.14,0,2.12.41,2.95,1.24.82.83,1.24,1.68,1.24,2.57s-.19,1.71-.57,2.47l-47.92,79.29v42.4c0,1.4-.51,2.6-1.52,3.61-1.02,1.02-2.22,1.52-3.61,1.52h-40.5c-1.4,0-2.6-.51-3.61-1.52-1.02-1.01-1.52-2.22-1.52-3.61v-42.4l-47.73-79.29c-.38-.76-.57-1.58-.57-2.47s.41-1.74,1.24-2.57,1.81-1.24,2.95-1.24h40.12c3.55,0,6.15,1.46,7.8,4.37l21.49,37.65,22.06-37.27c1.9-3.17,4.56-4.75,7.99-4.75Z"/>
  <path d="M659.11,134.9c.5.76.76,1.65.76,2.66s-.41,1.93-1.24,2.76-1.81,1.24-2.95,1.24h-49.06c-2.92,0-5.2-1.01-6.85-3.04l-33.09-40.88v38.79c0,1.4-.51,2.6-1.52,3.61s-2.22,1.52-3.61,1.52h-39.17c-1.4,0-2.6-.51-3.61-1.52-1.02-1.01-1.52-2.22-1.52-3.61V13.58c0-1.39.5-2.6,1.52-3.61,1.01-1.01,2.22-1.52,3.61-1.52h39.17c1.39,0,2.6.51,3.61,1.52,1.01,1.02,1.52,2.22,1.52,3.61v35.75l30.04-37.65c1.9-2.15,4.25-3.23,7.03-3.23h45.83c1.14,0,2.12.41,2.95,1.24.82.83,1.24,1.78,1.24,2.85s-.32,2-.95,2.76l-45.07,54.95,51.34,64.65Z"/>
</svg>