<?xml version="1.0" encoding="UTF-8"?>
<svg id="overlay_copy" data-name="overlay copy" xmlns="http://www.w3.org/2000/svg" viewBox="0 0 701 150">
  <path d="M151.42,8.45h34.8c1.39,0,2.6.51,3.61,1.52,1.01,1.02,1.52,2.22,1.52,3.61v122.84c0,1.4-.51,2.6-1.52,3.61s-2.22,1.52-3.61,1.52h-34.42c-1.4,0-2.6-.5-3.61-1.52-1.02-1.01-1.52-2.22-1.52-3.61v-58.95l-13.88,27.38c-.76,1.52-1.9,2.69-3.42,3.52-1.52.83-3.04,1.24-4.56,1.24h-12.93c-2.16,0-3.93-.57-5.32-1.71-1.4-1.14-2.28-2.15-2.66-3.04l-13.88-27.38v58.95c0,1.4-.51,2.6-1.52,3.61-1.02,1.02-2.22,1.52-3.61,1.52h-34.42c-1.4,0-2.6-.5-3.61-1.52-1.02-1.01-1.52-2.22-1.52-3.61V13.58c0-1.39.5-2.6,1.52-3.61,1.01-1.01,2.22-1.52,3.61-1.52h34.8c3.55,0,6.27,1.71,8.18,5.13l24.91,45.64,24.91-45.64c1.9-3.42,4.63-5.13,8.18-5.13Z"/>
  <path d="M335.48,47.43h-34.42v55.14h34.42c1.39,0,2.6.51,3.61,1.52,1.01,1.02,1.52,2.22,1.52,3.61v28.71c0,1.4-.51,2.6-1.52,3.61-1.02,1.02-2.22,1.52-3.61,1.52h-120.55c-1.4,0-2.6-.5-3.61-1.52-1.02-1.01-1.52-2.22-1.52-3.61v-28.71c0-1.39.5-2.6,1.52-3.61,1.01-1.01,2.22-1.52,3.61-1.52h34.8v-55.14h-34.8c-1.4,0-2.6-.51-3.61-1.52-1.02-1.01-1.52-2.22-1.52-3.61V13.58c0-1.39.5-2.6,1.52-3.61s2.22-1.52,3.61-1.52h120.55c1.39,0,2.6.51,3.61,1.52,1.01,1.02,1.52,2.22,1.52,3.61v28.71c0,1.4-.51,2.6-1.52,3.61-1.02,1.02-2.22,1.52-3.61,1.52Z"/>
  <path d="M510.61,134.9c.5.76.76,1.65.76,2.66s-.41,1.93-1.24,2.76c-.83.83-1.81,1.24-2.95,1.24h-49.06c-2.92,0-5.2-1.01-6.85-3.04l-33.09-40.88v38.79c0,1.4-.51,2.6-1.52,3.61-1.02,1.02-2.22,1.52-3.61,1.52h-39.17c-1.4,0-2.6-.5-3.61-1.52-1.02-1.01-1.52-2.22-1.52-3.61V13.58c0-1.39.5-2.6,1.52-3.61,1.01-1.01,2.22-1.52,3.61-1.52h39.17c1.39,0,2.6.51,3.61,1.52,1.01,1.02,1.52,2.22,1.52,3.61v35.75l30.04-37.65c1.9-2.15,4.25-3.23,7.03-3.23h45.83c1.14,0,2.12.41,2.95,1.24.82.83,1.24,1.78,1.24,2.85s-.32,2-.95,2.76l-45.07,54.95,51.34,64.65Z"/>
  <path d="M574.68,104.47h75.87c1.39,0,2.6.51,3.61,1.52,1.01,1.02,1.52,2.22,1.52,3.61v26.81c0,1.4-.51,2.6-1.52,3.61-1.02,1.02-2.22,1.52-3.61,1.52h-120.17c-1.4,0-2.6-.5-3.61-1.52-1.02-1.01-1.52-2.22-1.52-3.61V13.58c0-1.39.51-2.6,1.52-3.61,1.01-1.01,2.22-1.52,3.61-1.52h118.27c1.39,0,2.6.51,3.61,1.52,1.01,1.02,1.52,2.22,1.52,3.61v26.81c0,1.4-.51,2.6-1.52,3.61-1.02,1.02-2.22,1.52-3.61,1.52h-73.97v11.98h63.51c1.39,0,2.6.51,3.61,1.52,1.01,1.02,1.52,2.22,1.52,3.61v24.72c0,1.4-.51,2.6-1.52,3.61-1.02,1.02-2.22,1.52-3.61,1.52h-63.51v11.98Z"/>
</svg>